<svg width="89" height="15" viewBox="0 0 89 15" fill="none" xmlns="http://www.w3.org/2000/svg">
<path d="M10.8108 8.798C10.8108 9.158 10.7868 9.482 10.7388 9.77H3.44883C3.50883 10.49 3.76083 11.054 4.20483 11.462C4.64883 11.87 5.19483 12.074 5.84283 12.074C6.77883 12.074 7.44483 11.672 7.84083 10.868H10.5588C10.2708 11.828 9.71883 12.62 8.90283 13.244C8.08683 13.856 7.08483 14.162 5.89683 14.162C4.93683 14.162 4.07283 13.952 3.30483 13.532C2.54883 13.1 1.95483 12.494 1.52283 11.714C1.10283 10.934 0.892828 10.034 0.892828 9.014C0.892828 7.982 1.10283 7.076 1.52283 6.296C1.94283 5.516 2.53083 4.916 3.28683 4.496C4.04283 4.076 4.91283 3.866 5.89683 3.866C6.84483 3.866 7.69083 4.07 8.43483 4.478C9.19083 4.886 9.77283 5.468 10.1808 6.224C10.6008 6.968 10.8108 7.826 10.8108 8.798ZM8.20083 8.078C8.18883 7.43 7.95483 6.914 7.49883 6.53C7.04283 6.134 6.48483 5.936 5.82483 5.936C5.20083 5.936 4.67283 6.128 4.24083 6.512C3.82083 6.884 3.56283 7.406 3.46683 8.078H8.20083ZM12.0022 8.978C12.0022 7.97 12.2002 7.076 12.5962 6.296C13.0042 5.516 13.5562 4.916 14.2522 4.496C14.9482 4.076 15.7222 3.866 16.5742 3.866C17.2222 3.866 17.8402 4.01 18.4282 4.298C19.0162 4.574 19.4842 4.946 19.8322 5.414V0.68H22.3882V14H19.8322V12.524C19.5202 13.016 19.0822 13.412 18.5182 13.712C17.9542 14.012 17.3002 14.162 16.5562 14.162C15.7162 14.162 14.9482 13.946 14.2522 13.514C13.5562 13.082 13.0042 12.476 12.5962 11.696C12.2002 10.904 12.0022 9.998 12.0022 8.978ZM19.8502 9.014C19.8502 8.402 19.7302 7.88 19.4902 7.448C19.2502 7.004 18.9262 6.668 18.5182 6.44C18.1102 6.2 17.6722 6.08 17.2042 6.08C16.7362 6.08 16.3042 6.194 15.9082 6.422C15.5122 6.65 15.1882 6.986 14.9362 7.43C14.6962 7.862 14.5762 8.378 14.5762 8.978C14.5762 9.578 14.6962 10.106 14.9362 10.562C15.1882 11.006 15.5122 11.348 15.9082 11.588C16.3162 11.828 16.7482 11.948 17.2042 11.948C17.6722 11.948 18.1102 11.834 18.5182 11.606C18.9262 11.366 19.2502 11.03 19.4902 10.598C19.7302 10.154 19.8502 9.626 19.8502 9.014ZM34.2634 4.028V14H31.7254V12.74C31.4014 13.172 30.9754 13.514 30.4474 13.766C29.9314 14.006 29.3674 14.126 28.7554 14.126C27.9754 14.126 27.2854 13.964 26.6854 13.64C26.0854 13.304 25.6114 12.818 25.2634 12.182C24.9274 11.534 24.7594 10.766 24.7594 9.878V4.028H27.2794V9.518C27.2794 10.31 27.4774 10.922 27.8734 11.354C28.2694 11.774 28.8094 11.984 29.4934 11.984C30.1894 11.984 30.7354 11.774 31.1314 11.354C31.5274 10.922 31.7254 10.31 31.7254 9.518V4.028H34.2634ZM36.1018 8.978C36.1018 7.97 36.2998 7.076 36.6958 6.296C37.1038 5.516 37.6498 4.916 38.3338 4.496C39.0298 4.076 39.8038 3.866 40.6558 3.866C41.3998 3.866 42.0478 4.016 42.5998 4.316C43.1638 4.616 43.6138 4.994 43.9498 5.45V4.028H46.4878V14H43.9498V12.542C43.6258 13.01 43.1758 13.4 42.5998 13.712C42.0358 14.012 41.3818 14.162 40.6378 14.162C39.7978 14.162 39.0298 13.946 38.3338 13.514C37.6498 13.082 37.1038 12.476 36.6958 11.696C36.2998 10.904 36.1018 9.998 36.1018 8.978ZM43.9498 9.014C43.9498 8.402 43.8298 7.88 43.5898 7.448C43.3498 7.004 43.0258 6.668 42.6178 6.44C42.2098 6.2 41.7718 6.08 41.3038 6.08C40.8358 6.08 40.4038 6.194 40.0078 6.422C39.6118 6.65 39.2878 6.986 39.0358 7.43C38.7958 7.862 38.6758 8.378 38.6758 8.978C38.6758 9.578 38.7958 10.106 39.0358 10.562C39.2878 11.006 39.6118 11.348 40.0078 11.588C40.4158 11.828 40.8478 11.948 41.3038 11.948C41.7718 11.948 42.2098 11.834 42.6178 11.606C43.0258 11.366 43.3498 11.03 43.5898 10.598C43.8298 10.154 43.9498 9.626 43.9498 9.014ZM51.883 6.098V10.922C51.883 11.258 51.961 11.504 52.117 11.66C52.285 11.804 52.561 11.876 52.945 11.876H54.115V14H52.531C50.407 14 49.345 12.968 49.345 10.904V6.098H48.157V4.028H49.345V1.562H51.883V4.028H54.115V6.098H51.883ZM60.3555 14.162C59.3955 14.162 58.5315 13.952 57.7635 13.532C56.9955 13.1 56.3895 12.494 55.9455 11.714C55.5135 10.934 55.2975 10.034 55.2975 9.014C55.2975 7.994 55.5195 7.094 55.9635 6.314C56.4195 5.534 57.0375 4.934 57.8175 4.514C58.5975 4.082 59.4675 3.866 60.4275 3.866C61.3875 3.866 62.2575 4.082 63.0375 4.514C63.8175 4.934 64.4295 5.534 64.8735 6.314C65.3295 7.094 65.5575 7.994 65.5575 9.014C65.5575 10.034 65.3235 10.934 64.8555 11.714C64.3995 12.494 63.7755 13.1 62.9835 13.532C62.2035 13.952 61.3275 14.162 60.3555 14.162ZM60.3555 11.966C60.8115 11.966 61.2375 11.858 61.6335 11.642C62.0415 11.414 62.3655 11.078 62.6055 10.634C62.8455 10.19 62.9655 9.65 62.9655 9.014C62.9655 8.066 62.7135 7.34 62.2095 6.836C61.7175 6.32 61.1115 6.062 60.3915 6.062C59.6715 6.062 59.0655 6.32 58.5735 6.836C58.0935 7.34 57.8535 8.066 57.8535 9.014C57.8535 9.962 58.0875 10.694 58.5555 11.21C59.0355 11.714 59.6355 11.966 60.3555 11.966ZM79.7901 3.884C81.0141 3.884 81.9981 4.262 82.7421 5.018C83.4981 5.762 83.8761 6.806 83.8761 8.15V14H81.3561V8.492C81.3561 7.712 81.1581 7.118 80.7621 6.71C80.3661 6.29 79.8261 6.08 79.1421 6.08C78.4581 6.08 77.9121 6.29 77.5041 6.71C77.1081 7.118 76.9101 7.712 76.9101 8.492V14H74.3901V8.492C74.3901 7.712 74.1921 7.118 73.7961 6.71C73.4001 6.29 72.8601 6.08 72.1761 6.08C71.4801 6.08 70.9281 6.29 70.5201 6.71C70.1241 7.118 69.9261 7.712 69.9261 8.492V14H67.4061V4.028H69.9261V5.234C70.2501 4.814 70.6641 4.484 71.1681 4.244C71.6841 4.004 72.2481 3.884 72.8601 3.884C73.6401 3.884 74.3361 4.052 74.9481 4.388C75.5601 4.712 76.0341 5.18 76.3701 5.792C76.6941 5.216 77.1621 4.754 77.7741 4.406C78.3981 4.058 79.0701 3.884 79.7901 3.884Z" fill="#1F1C21"/>
<path d="M87.3834 14.126C86.9274 14.126 86.5494 13.988 86.2494 13.712C85.9614 13.424 85.8174 13.07 85.8174 12.65C85.8174 12.23 85.9614 11.882 86.2494 11.606C86.5494 11.318 86.9274 11.174 87.3834 11.174C87.8274 11.174 88.1934 11.318 88.4814 11.606C88.7694 11.882 88.9134 12.23 88.9134 12.65C88.9134 13.07 88.7694 13.424 88.4814 13.712C88.1934 13.988 87.8274 14.126 87.3834 14.126Z" fill="#2400FF"/>
</svg>
